<svg width="18" height="23" viewBox="0 0 18 23" fill="none" xmlns="http://www.w3.org/2000/svg">
<path d="M8.91087 10.2333C8.11142 11.654 7.4626 11.677 7.2566 13.9521C7.00838 16.6936 8.56275 18.9685 10.7061 19.2799C12.8494 19.5913 14.7506 18.0349 14.9989 15.2934C15.2049 13.0182 14.5174 12.7018 13.9358 11.0371C13.2912 9.19194 14.0532 6.77391 11.7894 6.44505C9.33156 6.088 9.85175 8.56122 8.91087 10.2333Z" fill="#A4D31F"/>
<path fill-rule="evenodd" clip-rule="evenodd" d="M8.05947 10.7546C8.23081 10.524 8.4076 10.2748 8.5926 9.94607C8.79303 9.5899 8.92228 9.17917 9.04134 8.72866C9.06712 8.63113 9.09294 8.52921 9.11938 8.4249C9.2084 8.07354 9.30432 7.69497 9.42854 7.36517C9.59745 6.91671 9.84136 6.48779 10.2529 6.21335C10.6584 5.94289 11.1742 5.85764 11.8337 5.95345C12.4557 6.0438 12.9195 6.28548 13.2546 6.67894C13.5884 7.07089 13.7522 7.56447 13.8486 8.05236C13.9199 8.41367 13.9606 8.81246 13.9986 9.18531C14.0102 9.29939 14.0216 9.41104 14.0335 9.51844C14.0871 10.0005 14.1546 10.4411 14.2929 10.8369C14.4283 11.2245 14.5704 11.5355 14.7102 11.8283C14.7323 11.8744 14.7546 11.9208 14.7771 11.9674C14.8937 12.2093 15.0137 12.4584 15.114 12.7204C15.3696 13.3881 15.497 14.1326 15.3868 15.3497C15.1094 18.4133 12.9768 20.1078 10.6614 19.7714C8.32131 19.4315 6.59357 16.9304 6.86834 13.8957C6.97769 12.688 7.21198 12.022 7.55295 11.468C7.68313 11.2565 7.82885 11.0624 7.96899 10.8756C7.99949 10.835 8.02972 10.7947 8.05947 10.7546ZM8.24735 11.2229C8.45017 10.9525 8.67382 10.6542 8.9107 10.2333C9.20283 9.7141 9.35411 9.11772 9.49741 8.55279C9.81564 7.29823 10.0945 6.19883 11.7892 6.44502C13.348 6.67146 13.4722 7.8884 13.6088 9.22681C13.6706 9.83219 13.7349 10.4624 13.9357 11.0371C14.1051 11.5221 14.2835 11.8927 14.4462 12.2306C14.842 13.0524 15.1447 13.6811 14.9987 15.2933C14.7505 18.0349 12.8492 19.5912 10.7059 19.2799C8.56258 18.9685 7.0082 16.6936 7.25642 13.9521C7.40138 12.3511 7.76563 11.8653 8.24735 11.2229Z" fill="#5B7C14"/>
<path fill-rule="evenodd" clip-rule="evenodd" d="M8.079 17.5193C8.38972 17.7606 8.73286 17.954 9.10276 18.0897C11.175 18.8498 13.2547 17.7172 13.8607 15.0666C14.217 13.5079 14.0014 12.824 13.7195 11.9301C13.6036 11.5625 13.4765 11.1594 13.3734 10.6453C13.2512 10.0363 13.2708 9.40131 13.2896 8.79136C13.3035 8.34376 13.3169 7.90964 13.2735 7.50914C13.4829 7.99451 13.5444 8.59719 13.6087 9.22675C13.6704 9.83212 13.7348 10.4624 13.9355 11.037C14.105 11.522 14.2834 11.8926 14.4461 12.2305C14.8418 13.0524 15.1445 13.681 14.9986 15.2933C14.7503 18.0348 12.8491 19.5912 10.7058 19.2798C9.63113 19.1237 8.70455 18.474 8.079 17.5193Z" fill="#92BC1B"/>
<path d="M9.94426 10.889C10.3381 11.2569 10.2688 12.2227 9.78944 13.0462C9.31006 13.8697 8.60215 14.239 8.20828 13.8712C7.81441 13.5033 7.88373 12.5375 8.36311 11.714C8.84248 10.8905 9.55039 10.5211 9.94426 10.889Z" fill="#BBEB35"/>
<path d="M11.2215 6.89557C11.3576 7.09019 11.2624 7.47866 11.0088 7.76324C10.7551 8.04782 10.4392 8.12075 10.3031 7.92613C10.167 7.7315 10.2622 7.34303 10.5159 7.05845C10.7695 6.77387 11.0854 6.70094 11.2215 6.89557Z" fill="#BBEB35"/>
<path fill-rule="evenodd" clip-rule="evenodd" d="M9.04857 12.0548C9.20488 12.2432 9.21105 12.5564 9.06235 12.7544C8.9892 12.8517 8.94743 12.9353 8.92476 13.0032C8.84072 13.2548 8.61152 13.3726 8.41283 13.2661C8.21413 13.1597 8.12119 12.8694 8.20523 12.6177C8.27212 12.4174 8.37323 12.2362 8.49632 12.0723C8.64501 11.8743 8.89227 11.8665 9.04857 12.0548Z" fill="white"/>
<path d="M14.8401 3.95618C14.8401 3.95618 14.0696 5.2936 13.3441 5.65102C12.6186 6.00844 11.775 5.46623 11.775 5.46623C11.775 5.46623 12.1077 4.34453 12.8331 3.98711C13.5586 3.62969 14.8401 3.95618 14.8401 3.95618Z" fill="#87D623"/>
<path fill-rule="evenodd" clip-rule="evenodd" d="M15.1554 4.2479L14.8399 3.95622L14.9169 3.47115C15.0475 3.50441 15.1557 3.61965 15.2039 3.77687C15.2522 3.93409 15.2339 4.11163 15.1554 4.2479ZM14.3966 3.87184C14.6599 3.91036 14.8399 3.95622 14.8399 3.95622C14.8399 3.95622 14.7317 4.14408 14.5581 4.3978C14.2687 4.82105 13.7975 5.4276 13.3439 5.65107C12.6184 6.00849 11.7748 5.46628 11.7748 5.46628C11.7748 5.46628 12.1075 4.34458 12.8329 3.98716C13.2865 3.76369 13.9575 3.80756 14.3966 3.87184ZM11.7748 5.46628C11.4091 5.29228 11.4092 5.29214 11.4092 5.29199L11.4093 5.29167L11.4095 5.29096L11.41 5.28922L11.4115 5.28452C11.4126 5.28084 11.414 5.2761 11.4159 5.27034C11.4195 5.25882 11.4245 5.24323 11.4309 5.22404C11.4438 5.1857 11.4624 5.13274 11.4868 5.06902C11.5355 4.94217 11.6088 4.76947 11.7084 4.58326C11.9025 4.22032 12.2226 3.75692 12.6913 3.52602C13.1407 3.30464 13.7178 3.30651 14.1361 3.34411C14.3542 3.36371 14.5475 3.39507 14.6864 3.4215C14.756 3.43474 14.8124 3.44685 14.8519 3.45578C14.8717 3.46024 14.8873 3.46392 14.8983 3.46657L14.9113 3.46973L14.915 3.47067L14.9166 3.47107L14.9169 3.47115C14.917 3.47116 14.9169 3.47115 14.8399 3.95622C15.1554 4.2479 15.1555 4.24783 15.1554 4.2479L15.1552 4.24821L15.1543 4.24988L15.152 4.2538L15.1442 4.2672C15.1375 4.27854 15.1279 4.29461 15.1157 4.31484C15.0913 4.35528 15.0562 4.41247 15.012 4.48182C14.9237 4.62012 14.7979 4.80867 14.6476 5.0098C14.3593 5.39551 13.9348 5.89083 13.4855 6.11221C13.0168 6.34312 12.5336 6.27552 12.1969 6.17407C12.0241 6.12201 11.878 6.05742 11.7744 6.0056C11.7224 5.97956 11.6804 5.95642 11.6505 5.93915C11.6355 5.93051 11.6235 5.92331 11.6147 5.91792C11.6103 5.91523 11.6067 5.91298 11.6039 5.91123L11.6003 5.90899L11.599 5.90815L11.5982 5.90766C11.5981 5.90758 11.598 5.90751 11.7748 5.46628ZM11.4091 5.29228L11.7748 5.46628L11.598 5.90751C11.4205 5.79339 11.3391 5.52837 11.4091 5.29228Z" fill="#156319"/>
<path d="M13.2965 5.51061C13.9133 5.20672 14.5823 4.11487 14.5823 4.11487C13.221 4.34964 12.2778 5.06861 11.9763 5.39875C11.9763 5.39875 12.6796 5.81449 13.2965 5.51061Z" fill="#79C01E"/>
<path d="M10.8432 3.96046C11.0814 4.12754 11.5784 5.44957 11.691 6.10079C11.7004 6.15512 11.8187 6.11692 11.811 6.06954C11.7944 5.48118 11.6432 4.05292 11.3807 3.5461C11.0215 3.52112 10.8555 3.83378 10.8432 3.96046Z" fill="#8C5936"/>
<path fill-rule="evenodd" clip-rule="evenodd" d="M10.6337 4.37856C10.5066 4.27675 10.4363 4.09065 10.4549 3.89995C10.4767 3.67636 10.592 3.46018 10.7343 3.31305C10.8956 3.14638 11.122 3.03264 11.4015 3.05208C11.5254 3.06069 11.6387 3.14333 11.7068 3.27474C11.8031 3.46073 11.8746 3.69851 11.9295 3.92783C11.9864 4.16499 12.0335 4.42827 12.0715 4.68659C12.1453 5.18847 12.1895 5.70429 12.2 6.02846C12.2212 6.30121 12.0684 6.46294 12.0266 6.50167C11.9622 6.56117 11.8948 6.59081 11.8443 6.60552C11.795 6.61991 11.7186 6.63263 11.6327 6.60943C11.5505 6.58725 11.3584 6.49384 11.3088 6.20663C11.2622 5.93724 11.1252 5.48485 10.9631 5.06751C10.8835 4.86256 10.8035 4.68069 10.7334 4.54573C10.6982 4.478 10.6693 4.42942 10.6478 4.39808C10.6415 4.3888 10.6367 4.38249 10.6337 4.37856ZM11.8104 6.06955C11.8104 6.06888 11.8103 6.06821 11.8103 6.06754C11.807 5.95227 11.7986 5.80506 11.7852 5.639C11.7611 5.33968 11.7208 4.97916 11.6655 4.63425C11.5945 4.19177 11.4986 3.77499 11.3801 3.54612C11.2754 3.53884 11.1871 3.56026 11.1142 3.59741C11.0368 3.63688 10.9768 3.6941 10.9331 3.7535C10.8768 3.82994 10.8475 3.90999 10.8426 3.96048C10.9567 4.04054 11.1303 4.38581 11.2925 4.79538C11.406 5.08191 11.5139 5.39991 11.5921 5.6806C11.6323 5.82515 11.6647 5.95981 11.6858 6.07518C11.6874 6.08383 11.6889 6.09238 11.6904 6.10081C11.6997 6.15514 11.8181 6.11694 11.8104 6.06955ZM11.4194 6.06829C11.4194 6.09995 11.422 6.13359 11.4278 6.16919C11.4234 6.14217 11.4208 6.11474 11.42 6.08718C11.4198 6.081 11.4196 6.0747 11.4194 6.06829Z" fill="#583A24"/>
<path d="M11.4564 3.61151C11.5112 3.73572 11.417 3.93443 11.2461 4.05534C11.0752 4.17625 10.8922 4.17358 10.8374 4.04937C10.7827 3.92516 10.8768 3.72644 11.0478 3.60553C11.2187 3.48462 11.4016 3.48729 11.4564 3.61151Z" fill="#C27A49"/>
<path d="M13.5908 13.8524C13.5694 14.0885 13.401 14.2579 13.2146 14.2308C13.0283 14.2037 12.8945 13.9904 12.9159 13.7543C12.9373 13.5183 13.1057 13.3488 13.292 13.3759C13.4784 13.403 13.6122 13.6163 13.5908 13.8524Z" fill="#83A918"/>
<path d="M14.5258 14.8544C14.5044 15.0905 14.336 15.2599 14.1496 15.2328C13.9632 15.2057 13.8295 14.9924 13.8509 14.7563C13.8722 14.5203 14.0406 14.3508 14.227 14.3779C14.4134 14.405 14.5472 14.6183 14.5258 14.8544Z" fill="#83A918"/>
<path d="M14.4828 13.4406C14.4668 13.6177 14.3405 13.7448 14.2007 13.7245C14.0609 13.7041 13.9606 13.5442 13.9766 13.3671C13.9927 13.19 14.119 13.063 14.2588 13.0833C14.3986 13.1036 14.4989 13.2636 14.4828 13.4406Z" fill="#83A918"/>
<path d="M14.3903 16.3504C14.369 16.5865 14.2005 16.7559 14.0142 16.7289C13.8278 16.7018 13.694 16.4885 13.7154 16.2524C13.7368 16.0163 13.9052 15.8469 14.0916 15.874C14.2779 15.901 14.4117 16.1144 14.3903 16.3504Z" fill="#83A918"/>
<path d="M13.4553 15.3485C13.434 15.5846 13.2656 15.754 13.0792 15.7269C12.8928 15.6998 12.759 15.4865 12.7804 15.2504C12.8018 15.0144 12.9702 14.8449 13.1566 14.872C13.343 14.8991 13.4767 15.1124 13.4553 15.3485Z" fill="#83A918"/>
<path d="M13.5993 17.5348C13.5779 17.7708 13.4095 17.9403 13.2231 17.9132C13.0368 17.8861 12.903 17.6728 12.9244 17.4367C12.9458 17.2006 13.1142 17.0312 13.3005 17.0583C13.4869 17.0854 13.6207 17.2987 13.5993 17.5348Z" fill="#83A918"/>
<path d="M12.645 16.7465C12.6236 16.9826 12.4552 17.152 12.2688 17.1249C12.0824 17.0979 11.9487 16.8845 11.97 16.6485C11.9914 16.4124 12.1598 16.243 12.3462 16.27C12.5326 16.2971 12.6663 16.5104 12.645 16.7465Z" fill="#83A918"/>
<path d="M12.6686 18.374C12.6525 18.551 12.5262 18.6781 12.3864 18.6578C12.2467 18.6375 12.1463 18.4775 12.1624 18.3004C12.1784 18.1234 12.3047 17.9963 12.4445 18.0166C12.5843 18.0369 12.6846 18.1969 12.6686 18.374Z" fill="#83A918"/>
<path d="M7.42578 9.49068C7.42578 9.49068 7.38648 11.0877 6.90726 11.7972C6.32967 12.6524 5.21773 12.3307 5.21773 12.3307C5.21773 12.3307 5.13515 11.0663 5.79203 10.2214C6.29732 9.57149 7.42578 9.49068 7.42578 9.49068Z" fill="#10BC17"/>
<path fill-rule="evenodd" clip-rule="evenodd" d="M7.71633 9.50219L7.42576 9.49072L7.40935 9.12308C7.49075 9.11725 7.57033 9.15498 7.6287 9.22707C7.68707 9.29916 7.71887 9.39898 7.71633 9.50219ZM7.13323 9.53216C7.30876 9.4991 7.42576 9.49072 7.42576 9.49072C7.42576 9.49072 7.42214 9.6376 7.40374 9.86206C7.36146 10.3777 7.24112 11.3029 6.90724 11.7973C6.32965 12.6524 5.21771 12.3307 5.21771 12.3307C5.21771 12.3307 5.13513 11.0663 5.79201 10.2214C6.1346 9.7808 6.76365 9.60177 7.13323 9.53216ZM5.21771 12.3307C4.928 12.3611 4.92799 12.361 4.92798 12.3608L4.92796 12.3605L4.92791 12.3599L4.92781 12.3581L4.92753 12.3533C4.92731 12.3495 4.92704 12.3444 4.92675 12.3382C4.92617 12.3258 4.92548 12.3087 4.92491 12.2873C4.92376 12.2446 4.92304 12.1847 4.92445 12.1111C4.92726 11.9641 4.93859 11.7598 4.97265 11.5261C5.04018 11.0628 5.20122 10.4565 5.58488 9.96307C5.89857 9.55959 6.37683 9.35821 6.73268 9.25366C6.91766 9.19931 7.08495 9.16691 7.20602 9.14803C7.26674 9.13856 7.31634 9.13242 7.3513 9.1286C7.3688 9.12668 7.38267 9.12535 7.39248 9.12447C7.39739 9.12403 7.40128 9.12371 7.40411 9.12348L7.40755 9.12321L7.40906 9.1231L7.40935 9.12308C7.40942 9.12307 7.40935 9.12308 7.42576 9.49072C7.71633 9.50219 7.71633 9.50212 7.71633 9.50219L7.71631 9.50302L7.71627 9.50442L7.71614 9.50895C7.71603 9.51273 7.71587 9.51801 7.71564 9.52472C7.71518 9.53814 7.71446 9.55727 7.71338 9.58151C7.71122 9.62996 7.7076 9.69897 7.70172 9.78362C7.68999 9.95246 7.66909 10.1858 7.63227 10.4435C7.56154 10.9384 7.422 11.6015 7.12814 12.0366C6.76494 12.5744 6.24776 12.7232 5.8632 12.7523C5.66687 12.7671 5.49216 12.752 5.36668 12.7334C5.30361 12.724 5.25213 12.7137 5.21556 12.7054C5.19725 12.7013 5.18262 12.6976 5.17207 12.6949C5.16679 12.6935 5.16252 12.6924 5.15933 12.6915L5.15534 12.6904L5.15395 12.69L5.15319 12.6898C5.15308 12.6898 5.15298 12.6897 5.21771 12.3307ZM4.928 12.3611L5.21771 12.3307L5.15298 12.6897C5.02946 12.654 4.93844 12.521 4.928 12.3611Z" fill="#156319"/>
<path d="M6.71202 11.7349C7.11683 11.2143 7.22991 9.90722 7.22991 9.90722C6.19417 10.6854 5.73523 11.7917 5.5967 12.2007C5.5967 12.2007 6.30722 12.2556 6.71202 11.7349Z" fill="#07A00E"/>
<path d="M3.02678 11.4085C3.02678 11.4085 3.89845 10.8711 4.4509 11.0302C5.11675 11.2219 5.34174 12.2951 5.34174 12.2951C5.34174 12.2951 4.69227 12.8185 4.00358 12.5547C3.47382 12.3518 3.02678 11.4085 3.02678 11.4085Z" fill="#13CA1B"/>
<path fill-rule="evenodd" clip-rule="evenodd" d="M2.89977 11.0773L3.02699 11.4084L2.77773 11.5979C2.73578 11.5094 2.7251 11.4026 2.7483 11.3036C2.77151 11.2046 2.82646 11.1225 2.89977 11.0773ZM3.19511 11.7155C3.08936 11.54 3.02699 11.4084 3.02699 11.4084C3.02699 11.4084 3.13462 11.342 3.29822 11.2629C3.60018 11.1167 4.09279 10.9269 4.45111 11.0301C5.11696 11.2219 5.34194 12.295 5.34194 12.295C5.34194 12.295 4.69247 12.8184 4.00379 12.5547C3.6719 12.4276 3.37248 12.0098 3.19511 11.7155ZM5.34194 12.295C5.498 12.6057 5.49791 12.6058 5.49782 12.6058L5.49763 12.606L5.4972 12.6063L5.49615 12.6072L5.49333 12.6094C5.49113 12.6111 5.48828 12.6133 5.48482 12.616C5.47789 12.6213 5.46846 12.6284 5.45668 12.6369C5.43315 12.6539 5.40009 12.6767 5.35873 12.7026C5.27631 12.7544 5.15922 12.8195 5.01746 12.8754C4.73714 12.9858 4.33932 13.0679 3.91965 12.9071C3.57149 12.7738 3.28173 12.4177 3.09665 12.146C2.99939 12.0033 2.9207 11.8682 2.86628 11.7689C2.83895 11.719 2.81746 11.6776 2.80251 11.6481C2.79503 11.6333 2.78916 11.6215 2.78501 11.613L2.78006 11.6028L2.77857 11.5997L2.77807 11.5986L2.77773 11.5979C2.7777 11.5978 2.77773 11.5979 3.02699 11.4084C2.89977 11.0773 2.89971 11.0773 2.89977 11.0773L2.9003 11.077L2.90116 11.0764L2.90382 11.0748L2.91284 11.0694C2.92046 11.0648 2.93127 11.0584 2.94496 11.0505C2.97231 11.0348 3.01131 11.0128 3.05959 10.9872C3.15582 10.9362 3.29057 10.8698 3.44457 10.8084C3.7369 10.6918 4.15795 10.5681 4.51556 10.6711C4.96009 10.7991 5.23771 11.2144 5.395 11.544C5.47575 11.7132 5.53176 11.8739 5.56767 11.992C5.58575 12.0515 5.59904 12.1011 5.60804 12.137C5.61255 12.155 5.616 12.1696 5.61845 12.1803C5.61968 12.1857 5.62066 12.1901 5.6214 12.1935L5.62233 12.1978L5.62267 12.1993L5.62286 12.2002C5.62289 12.2004 5.62291 12.2005 5.34194 12.295ZM5.498 12.6057L5.34194 12.295L5.62291 12.2005C5.65543 12.3556 5.6049 12.5195 5.498 12.6057Z" fill="#156319"/>
<path fill-rule="evenodd" clip-rule="evenodd" d="M3.16014 11.3331C3.07676 11.3776 3.02694 11.4084 3.02694 11.4084C3.02694 11.4084 3.47398 12.3518 4.00374 12.5546C4.69242 12.8184 5.34189 12.295 5.34189 12.295C5.34189 12.295 5.28824 12.0391 5.1558 11.7549C4.94004 11.9101 4.47121 12.1776 3.95931 12.0281C3.65031 11.9379 3.35554 11.6028 3.16014 11.3331Z" fill="#33ED3B"/>
<path d="M8.94854 15.2584C9.29753 17.461 8.17077 19.6049 6.43187 20.0469C4.69297 20.489 3.0004 19.0618 2.65142 16.8591C2.30244 14.6565 3.42919 12.5126 5.16809 12.0706C6.907 11.6285 8.59956 13.0558 8.94854 15.2584Z" fill="#FE9F81"/>
<path fill-rule="evenodd" clip-rule="evenodd" d="M9.23399 15.186C9.61457 17.588 8.38582 19.926 6.4895 20.4081C4.59318 20.8901 2.7474 19.3337 2.36682 16.9317C1.98625 14.5297 3.215 12.1917 5.11132 11.7097C7.00764 11.2276 8.85342 12.784 9.23399 15.186ZM6.4323 20.0471C8.1712 19.605 9.29795 17.4611 8.94897 15.2585C8.59999 13.0559 6.90742 11.6287 5.16852 12.0707C3.42962 12.5127 2.30287 14.6567 2.65185 16.8593C3.00083 19.0619 4.6934 20.4891 6.4323 20.0471Z" fill="#AB442D"/>
<path fill-rule="evenodd" clip-rule="evenodd" d="M7.71884 19.3219C6.75195 19.3783 5.62855 18.4479 4.94489 16.9008C4.10225 14.9939 4.23936 12.8555 5.23897 12.0537C5.21541 12.059 5.19183 12.0647 5.16825 12.0707C3.42935 12.5127 2.30259 14.6566 2.65157 16.8592C3.00056 19.0618 4.69312 20.4891 6.43202 20.047C6.91416 19.9245 7.34923 19.6711 7.71884 19.3219Z" fill="#FF7E6C"/>
<path d="M6.01682 12.4774C6.44114 12.6403 6.62872 13.4259 6.43578 14.2322C6.24284 15.0384 5.74244 15.5599 5.31812 15.3969C4.89379 15.234 4.70621 14.4484 4.89915 13.6421C5.0921 12.8359 5.59249 12.3144 6.01682 12.4774Z" fill="#FEC0AC"/>
<path fill-rule="evenodd" clip-rule="evenodd" d="M5.42951 13.7244C5.58472 13.7764 5.67725 13.9779 5.63618 14.1745C5.60815 14.3087 5.60404 14.4355 5.62111 14.5587C5.64886 14.759 5.54317 14.9499 5.38503 14.985C5.2269 15.0202 5.0762 14.8863 5.04845 14.686C5.01614 14.4529 5.02561 14.2183 5.07411 13.9861C5.11518 13.7895 5.27429 13.6723 5.42951 13.7244Z" fill="white"/>
<path fill-rule="evenodd" clip-rule="evenodd" d="M5.13208 11.9754C5.50846 11.6808 5.94242 11.6251 6.31568 11.6878C6.39526 11.7012 6.45121 11.7938 6.44064 11.8946C6.43008 11.9954 6.357 12.0662 6.27742 12.0529C5.95135 11.998 5.58956 12.0502 5.28487 12.2886C4.98425 12.5239 4.72106 12.9545 4.60719 13.7035C4.37594 15.2244 4.8507 16.4643 5.10571 16.879C5.15503 16.9592 5.14368 17.0749 5.08034 17.1374C5.01701 17.1999 4.92568 17.1855 4.87635 17.1053C4.57981 16.623 4.07179 15.2777 4.32173 13.6338C4.44844 12.8004 4.75164 12.2731 5.13208 11.9754Z" fill="#AB442D"/>
<path d="M6.11338 19.2042C6.22709 19.3583 6.22062 19.6 6.09892 19.7441C5.97723 19.8881 5.7864 19.8799 5.67269 19.7258C5.55898 19.5716 5.56545 19.3299 5.68714 19.1859C5.80884 19.0418 5.99967 19.05 6.11338 19.2042Z" fill="#EC6B59"/>
<path d="M7.02158 18.8419C7.13529 18.996 7.12882 19.2377 7.00713 19.3818C6.88543 19.5258 6.6946 19.5176 6.58089 19.3635C6.46718 19.2093 6.47365 18.9676 6.59535 18.8236C6.71704 18.6795 6.90787 18.6877 7.02158 18.8419Z" fill="#EC6B59"/>
<path d="M6.44123 17.9579C6.52948 18.0776 6.52446 18.2652 6.43001 18.3769C6.33557 18.4887 6.18748 18.4823 6.09923 18.3627C6.01099 18.2431 6.01601 18.0555 6.11045 17.9437C6.20489 17.832 6.35299 17.8383 6.44123 17.9579Z" fill="#EC6B59"/>
<path d="M7.60432 18.5095C7.69257 18.6291 7.68754 18.8167 7.5931 18.9284C7.49866 19.0402 7.35056 19.0339 7.26232 18.9142C7.17408 18.7946 7.1791 18.607 7.27354 18.4952C7.36798 18.3835 7.51608 18.3898 7.60432 18.5095Z" fill="#EC6B59"/>
<path d="M5.55549 18.2317C5.64374 18.3514 5.63871 18.539 5.54427 18.6507C5.44983 18.7625 5.30174 18.7561 5.21349 18.6365C5.12525 18.5169 5.13027 18.3293 5.22471 18.2175C5.31915 18.1058 5.46725 18.1121 5.55549 18.2317Z" fill="#EC6B59"/>
<path d="M4.32502 17.8661C4.41327 17.9858 4.40825 18.1734 4.3138 18.2851C4.21936 18.3969 4.07127 18.3905 3.98302 18.2709C3.89478 18.1513 3.8998 17.9637 3.99424 17.8519C4.08868 17.7402 4.23678 17.7465 4.32502 17.8661Z" fill="#EC6B59"/>
<path d="M7.83088 17.5383C7.91913 17.6579 7.9141 17.8455 7.81966 17.9573C7.72522 18.069 7.57713 18.0627 7.48888 17.943C7.40064 17.8234 7.40566 17.6358 7.5001 17.5241C7.59454 17.4123 7.74264 17.4186 7.83088 17.5383Z" fill="#EC6B59"/>
<path d="M5.19221 19.2026C5.28046 19.3222 5.27543 19.5098 5.18099 19.6216C5.08655 19.7333 4.93845 19.727 4.85021 19.6073C4.76197 19.4877 4.76699 19.3001 4.86143 19.1884C4.95587 19.0766 5.10397 19.0829 5.19221 19.2026Z" fill="#EC6B59"/>
<path d="M4.88154 18.3797C4.92614 18.4402 4.9236 18.535 4.87586 18.5915C4.82813 18.648 4.75328 18.6448 4.70868 18.5843C4.66408 18.5239 4.66662 18.4291 4.71436 18.3726C4.76209 18.3161 4.83694 18.3193 4.88154 18.3797Z" fill="#EC6B59"/>
<path d="M3.62568 17.9169C3.67028 17.9773 3.66774 18.0721 3.62001 18.1286C3.57227 18.1851 3.49742 18.1819 3.45283 18.1214C3.40823 18.061 3.41076 17.9662 3.4585 17.9097C3.50623 17.8532 3.58108 17.8564 3.62568 17.9169Z" fill="#EC6B59"/>
<path d="M8.24384 18.0574C8.28844 18.1178 8.2859 18.2126 8.23817 18.2691C8.19044 18.3256 8.11559 18.3224 8.07099 18.2619C8.02639 18.2015 8.02893 18.1067 8.07666 18.0502C8.12439 17.9937 8.19924 17.9969 8.24384 18.0574Z" fill="#EC6B59"/>
<path d="M7.16083 17.7694C7.20543 17.8299 7.20289 17.9247 7.15516 17.9812C7.10743 18.0376 7.03258 18.0344 6.98798 17.974C6.94338 17.9135 6.94592 17.8187 6.99365 17.7622C7.04138 17.7057 7.11623 17.7089 7.16083 17.7694Z" fill="#EC6B59"/>
<path d="M8.41376 17.2628C8.45836 17.3233 8.45582 17.4181 8.40809 17.4746C8.36036 17.5311 8.28551 17.5278 8.24091 17.4674C8.19631 17.4069 8.19885 17.3121 8.24658 17.2556C8.29431 17.1991 8.36916 17.2023 8.41376 17.2628Z" fill="#EC6B59"/>
<path d="M4.44714 18.6797C4.52079 18.7796 4.5166 18.9361 4.43777 19.0294C4.35895 19.1227 4.23534 19.1174 4.16168 19.0176C4.08803 18.9177 4.09222 18.7612 4.17105 18.6679C4.24987 18.5746 4.37348 18.5799 4.44714 18.6797Z" fill="#EC6B59"/>
</svg>
