<svg width="20" height="24" viewBox="0 0 20 24" fill="none" xmlns="http://www.w3.org/2000/svg">
<path d="M13.57 20.7812C13.57 21.3266 11.9694 21.7687 9.99495 21.7687C8.02052 21.7687 6.41992 21.3266 6.41992 20.7812C6.41992 20.2359 8.02052 19.7938 9.99495 19.7938C11.9694 19.7938 13.57 20.2359 13.57 20.7812Z" fill="#A0D6ED"/>
<path fill-rule="evenodd" clip-rule="evenodd" d="M12.616 21.9667C11.9303 22.1561 11.0037 22.2687 9.99463 22.2687C8.98558 22.2687 8.05898 22.1561 7.37324 21.9667C7.03371 21.8729 6.73018 21.7542 6.50138 21.6048C6.38721 21.5302 6.27198 21.4355 6.18083 21.3125C6.0874 21.1864 6.00293 21.0065 6.00293 20.7812C6.00293 20.556 6.0874 20.3761 6.18083 20.25C6.27198 20.127 6.38721 20.0323 6.50138 19.9577C6.73018 19.8083 7.03371 19.6895 7.37324 19.5958C8.05898 19.4064 8.98558 19.2938 9.99463 19.2938C11.0037 19.2938 11.9303 19.4064 12.616 19.5958C12.9555 19.6895 13.2591 19.8083 13.4879 19.9577C13.6021 20.0323 13.7173 20.127 13.8084 20.25C13.9019 20.3761 13.9863 20.556 13.9863 20.7812C13.9863 21.0065 13.9019 21.1864 13.8084 21.3125C13.7173 21.4355 13.6021 21.5302 13.4879 21.6048C13.2591 21.7542 12.9555 21.8729 12.616 21.9667ZM9.99463 21.7687C11.9691 21.7687 13.5697 21.3266 13.5697 20.7812C13.5697 20.2359 11.9691 19.7938 9.99463 19.7938C8.02019 19.7938 6.4196 20.2359 6.4196 20.7812C6.4196 21.3266 8.02019 21.7687 9.99463 21.7687Z" fill="#377894"/>
<path d="M10.7869 20.6894C10.7869 21.0007 9.87337 21.253 8.74647 21.253C7.61958 21.253 6.70605 21.0007 6.70605 20.6894C6.70605 20.3782 7.61958 20.1259 8.74647 20.1259C9.87337 20.1259 10.7869 20.3782 10.7869 20.6894Z" fill="#D7F3FF"/>
<path d="M9.67383 11.7695C9.67383 11.5538 9.81957 11.3789 9.99935 11.3789C10.1791 11.3789 10.3249 11.5538 10.3249 11.7695V20.1406C10.3249 20.3563 10.1791 20.5312 9.99935 20.5312C9.81957 20.5312 9.67383 20.3563 9.67383 20.1406V11.7695Z" fill="#A0D6ED"/>
<path fill-rule="evenodd" clip-rule="evenodd" d="M10.7422 11.7695V20.1406C10.7422 20.6324 10.4099 21.0312 10 21.0312C9.5901 21.0312 9.25781 20.6324 9.25781 20.1406V11.7695C9.25781 11.2777 9.5901 10.8789 10 10.8789C10.4099 10.8789 10.7422 11.2777 10.7422 11.7695ZM10 11.3789C9.82022 11.3789 9.67448 11.5538 9.67448 11.7695V20.1406C9.67448 20.3563 9.82022 20.5312 10 20.5312C10.1798 20.5312 10.3255 20.3563 10.3255 20.1406V11.7695C10.3255 11.5538 10.1798 11.3789 10 11.3789Z" fill="#649DB6"/>
<path fill-rule="evenodd" clip-rule="evenodd" d="M9.8431 14.7656C9.95816 14.7656 10.0514 14.8776 10.0514 15.0156V17.3594C10.0514 17.4974 9.95816 17.6094 9.8431 17.6094C9.72804 17.6094 9.63477 17.4974 9.63477 17.3594V15.0156C9.63477 14.8776 9.72804 14.7656 9.8431 14.7656Z" fill="#C8EFFF"/>
<path d="M6.40297 3.3125H13.5816L14.4727 9.61919C14.7552 10.9853 14.056 11.9831 12.9398 12.681C11.9039 13.3286 11.1622 13.4541 9.99228 13.4541C8.82234 13.4541 8.08816 13.3111 7.04474 12.681C6.2937 12.2274 5.22395 11.3291 5.51189 9.6192L6.40297 3.3125Z" fill="#BBE9FD"/>
<path fill-rule="evenodd" clip-rule="evenodd" d="M5.99189 3.22892C6.02586 2.98846 6.19945 2.8125 6.40269 2.8125H13.5813C13.7845 2.8125 13.9581 2.98846 13.9921 3.22892L14.8807 9.5178C15.0446 10.3311 14.9176 11.0588 14.5783 11.676C14.2458 12.2807 13.7246 12.7539 13.1321 13.1244C12.0181 13.8208 11.2043 13.9541 9.992 13.9541C8.77436 13.9541 7.97242 13.8011 6.85716 13.1276C6.46099 12.8884 5.94223 12.5105 5.56125 11.9308C5.16853 11.3333 4.93397 10.5366 5.10186 9.52815L5.99189 3.22892ZM5.51161 9.6192C5.22367 11.3291 6.29341 12.2274 7.04446 12.681C8.08788 13.3111 8.82206 13.4541 9.992 13.4541C11.1619 13.4541 11.9036 13.3286 12.9395 12.681C14.0557 11.9831 14.7549 10.9853 14.4724 9.61919L13.5813 3.3125H6.40269L5.51161 9.6192Z" fill="#6BB3D1"/>
<path d="M9.99228 13.454C11.1622 13.454 11.9039 13.3286 12.9398 12.6809C14.056 11.983 14.7552 10.9853 14.4727 9.61913L14.1691 7.47046H5.81548L5.51189 9.61914C5.22395 11.329 6.2937 12.2274 7.04474 12.6809C8.08816 13.311 8.82234 13.454 9.99228 13.454Z" fill="#99130C"/>
<path fill-rule="evenodd" clip-rule="evenodd" d="M14.1688 7.47046L14.4724 9.61913C14.7549 10.9853 14.0557 11.983 12.9395 12.6809C11.9036 13.3286 11.1619 13.454 9.992 13.454C8.82206 13.454 8.08788 13.311 7.04446 12.6809C6.29341 12.2274 5.22367 11.329 5.51161 9.61913L5.8152 7.47046H14.1688ZM5.10186 9.52808C4.93397 10.5366 5.16853 11.3332 5.56125 11.9308C5.94223 12.5105 6.46099 12.8883 6.85716 13.1275C7.97242 13.801 8.77436 13.954 9.992 13.954C11.2043 13.954 12.0181 13.8208 13.1321 13.1243C13.7246 12.7538 14.2458 12.2807 14.5783 11.676C14.9176 11.0587 15.0446 10.3311 14.8807 9.51774L14.5796 7.38688C14.5456 7.14642 14.372 6.97046 14.1688 6.97046H5.8152C5.61196 6.97046 5.43837 7.14642 5.4044 7.38688L5.10186 9.52808Z" fill="#5B0501"/>
<path d="M8.47586 11.3484C8.47586 12.2391 7.84435 12.4455 7.14774 12.2234C6.45112 12.0013 5.84565 11.2391 5.77404 10.4265C5.70243 9.614 5.93679 8.80151 6.63993 8.98906C7.34306 9.17661 8.47586 10.4577 8.47586 11.3484Z" fill="#780A04"/>
<path d="M13.57 3.21874C13.57 3.76408 11.9694 4.20616 9.99495 4.20616C8.02052 4.20616 6.41992 3.76408 6.41992 3.21874C6.41992 2.67341 8.02052 2.23132 9.99495 2.23132C11.9694 2.23132 13.57 2.67341 13.57 3.21874Z" fill="#D7F3FF"/>
<path fill-rule="evenodd" clip-rule="evenodd" d="M12.616 4.40421C11.9303 4.59362 11.0037 4.70616 9.99463 4.70616C8.98558 4.70616 8.05898 4.59362 7.37324 4.40421C7.03371 4.31044 6.73018 4.19168 6.50138 4.04228C6.38721 3.96772 6.27198 3.87298 6.18083 3.74996C6.0874 3.62385 6.00293 3.44402 6.00293 3.21874C6.00293 2.99346 6.0874 2.81363 6.18083 2.68753C6.27198 2.56451 6.38721 2.46977 6.50138 2.39521C6.73018 2.2458 7.03371 2.12705 7.37324 2.03327C8.05898 1.84387 8.98558 1.73132 9.99463 1.73132C11.0037 1.73132 11.9303 1.84387 12.616 2.03327C12.9555 2.12705 13.2591 2.2458 13.4879 2.39521C13.6021 2.46977 13.7173 2.56451 13.8084 2.68753C13.9019 2.81363 13.9863 2.99346 13.9863 3.21874C13.9863 3.44402 13.9019 3.62385 13.8084 3.74996C13.7173 3.87298 13.6021 3.96772 13.4879 4.04228C13.2591 4.19168 12.9555 4.31044 12.616 4.40421ZM9.99463 4.20616C11.9691 4.20616 13.5697 3.76408 13.5697 3.21874C13.5697 2.67341 11.9691 2.23132 9.99463 2.23132C8.02019 2.23132 6.4196 2.67341 6.4196 3.21874C6.4196 3.76408 8.02019 4.20616 9.99463 4.20616Z" fill="#6BB3D1"/>
<path fill-rule="evenodd" clip-rule="evenodd" d="M9.99905 2.69925C10.0008 2.5612 10.0955 2.45102 10.2106 2.45316C11.5816 2.47866 12.5027 2.88805 12.815 3.11405C12.9135 3.18537 12.9452 3.33902 12.8857 3.45725C12.8263 3.57548 12.6983 3.61351 12.5998 3.5422C12.3651 3.37237 11.5206 2.97759 10.2041 2.9531C10.0891 2.95095 9.99727 2.8373 9.99905 2.69925Z" fill="white"/>
<path d="M13.61 10.1415C13.61 10.4867 13.3768 10.7665 13.0892 10.7665C12.8015 10.7665 12.5684 10.4867 12.5684 10.1415C12.5684 9.7963 12.8015 9.51648 13.0892 9.51648C13.3768 9.51648 13.61 9.7963 13.61 10.1415Z" fill="#E3160C"/>
<path d="M12.8154 11.618C12.8154 11.864 12.6493 12.0634 12.4443 12.0634C12.2394 12.0634 12.0732 11.864 12.0732 11.618C12.0732 11.3721 12.2394 11.1727 12.4443 11.1727C12.6493 11.1727 12.8154 11.3721 12.8154 11.618Z" fill="#E3160C"/>
<path d="M11.8063 11.4969C11.8063 11.6836 11.6803 11.8348 11.5247 11.8348C11.3692 11.8348 11.2432 11.6836 11.2432 11.4969C11.2432 11.3103 11.3692 11.1591 11.5247 11.1591C11.6803 11.1591 11.8063 11.3103 11.8063 11.4969Z" fill="#E3160C"/>
<path d="M12.8503 8.96179C12.8503 9.1484 12.7242 9.29968 12.5687 9.29968C12.4132 9.29968 12.2871 9.1484 12.2871 8.96179C12.2871 8.77518 12.4132 8.6239 12.5687 8.6239C12.7242 8.6239 12.8503 8.77518 12.8503 8.96179Z" fill="#E3160C"/>
<path d="M12.9984 7.87C12.9984 7.9811 12.9233 8.07117 12.8307 8.07117C12.7381 8.07117 12.6631 7.9811 12.6631 7.87C12.6631 7.75889 12.7381 7.66882 12.8307 7.66882C12.9233 7.66882 12.9984 7.75889 12.9984 7.87Z" fill="#E3160C"/>
<path d="M13.7777 7.31531C13.7777 7.42641 13.7026 7.51648 13.61 7.51648C13.5174 7.51648 13.4424 7.42641 13.4424 7.31531C13.4424 7.2042 13.5174 7.11414 13.61 7.11414C13.7026 7.11414 13.7777 7.2042 13.7777 7.31531Z" fill="#E3160C"/>
<path d="M11.1478 12.1161C11.1478 12.2272 11.0727 12.3173 10.9801 12.3173C10.8876 12.3173 10.8125 12.2272 10.8125 12.1161C10.8125 12.005 10.8876 11.9149 10.9801 11.9149C11.0727 11.9149 11.1478 12.005 11.1478 12.1161Z" fill="#E3160C"/>
<path d="M10.3353 12.7489C10.3353 12.86 10.2602 12.9501 10.1676 12.9501C10.0751 12.9501 10 12.86 10 12.7489C10 12.6378 10.0751 12.5477 10.1676 12.5477C10.2602 12.5477 10.3353 12.6378 10.3353 12.7489Z" fill="#E3160C"/>
<path d="M11.2435 10.7665C11.2435 10.8776 11.1684 10.9677 11.0758 10.9677C10.9833 10.9677 10.9082 10.8776 10.9082 10.7665C10.9082 10.6554 10.9833 10.5653 11.0758 10.5653C11.1684 10.5653 11.2435 10.6554 11.2435 10.7665Z" fill="#E3160C"/>
<path d="M11.9495 9.01257C11.9495 9.12368 11.8745 9.21375 11.7819 9.21375C11.6893 9.21375 11.6143 9.12368 11.6143 9.01257C11.6143 8.90147 11.6893 8.8114 11.7819 8.8114C11.8745 8.8114 11.9495 8.90147 11.9495 9.01257Z" fill="#E3160C"/>
<path d="M12.1777 10.1415C12.1777 10.3874 12.0116 10.5868 11.8066 10.5868C11.6017 10.5868 11.4355 10.3874 11.4355 10.1415C11.4355 9.89554 11.6017 9.69617 11.8066 9.69617C12.0116 9.69617 12.1777 9.89554 12.1777 10.1415Z" fill="#E3160C"/>
<path d="M13.9814 8.51648C13.9814 8.76242 13.8153 8.96179 13.6104 8.96179C13.4054 8.96179 13.2393 8.76242 13.2393 8.51648C13.2393 8.27054 13.4054 8.07117 13.6104 8.07117C13.8153 8.07117 13.9814 8.27054 13.9814 8.51648Z" fill="#E3160C"/>
<path d="M14.2874 9.82507C14.2874 9.95236 14.2014 10.0555 14.0954 10.0555C13.9893 10.0555 13.9033 9.95236 13.9033 9.82507C13.9033 9.69779 13.9893 9.5946 14.0954 9.5946C14.2014 9.5946 14.2874 9.69779 14.2874 9.82507Z" fill="#E3160C"/>
<path d="M13.6097 11.2665C13.6097 11.3938 13.5237 11.4969 13.4176 11.4969C13.3116 11.4969 13.2256 11.3938 13.2256 11.2665C13.2256 11.1392 13.3116 11.036 13.4176 11.036C13.5237 11.036 13.6097 11.1392 13.6097 11.2665Z" fill="#E3160C"/>
<path d="M11.807 12.5477C11.807 12.675 11.721 12.7782 11.6149 12.7782C11.5088 12.7782 11.4229 12.675 11.4229 12.5477C11.4229 12.4204 11.5088 12.3173 11.6149 12.3173C11.721 12.3173 11.807 12.4204 11.807 12.5477Z" fill="#E3160C"/>
<path d="M14.1667 7.49844C14.1667 8.13353 12.3026 8.64837 10.0033 8.64837C7.70387 8.64837 5.83984 8.13353 5.83984 7.49844C5.83984 6.86335 7.70387 6.34851 10.0033 6.34851C12.3026 6.34851 14.1667 6.86335 14.1667 7.49844Z" fill="#C12F28"/>
<path fill-rule="evenodd" clip-rule="evenodd" d="M13.0404 8.79882C12.2481 9.01763 11.1745 9.14837 10.0029 9.14837C8.8314 9.14837 7.75771 9.01763 6.96549 8.79882C6.57273 8.69034 6.22611 8.55408 5.96754 8.38523C5.83848 8.30095 5.71169 8.19601 5.61271 8.06241C5.51144 7.92572 5.42285 7.73494 5.42285 7.49844C5.42285 7.26194 5.51144 7.07116 5.61271 6.93447C5.71169 6.80087 5.83848 6.69593 5.96754 6.61165C6.22611 6.4428 6.57273 6.30654 6.96549 6.19806C7.75771 5.97925 8.8314 5.84851 10.0029 5.84851C11.1745 5.84851 12.2481 5.97925 13.0404 6.19806C13.4331 6.30654 13.7797 6.4428 14.0383 6.61165C14.1674 6.69593 14.2942 6.80087 14.3932 6.93447C14.4944 7.07116 14.583 7.26194 14.583 7.49844C14.583 7.73494 14.4944 7.92572 14.3932 8.06241C14.2942 8.19601 14.1674 8.30095 14.0383 8.38523C13.7797 8.55408 13.4331 8.69034 13.0404 8.79882ZM10.0029 8.64837C12.3023 8.64837 14.1663 8.13353 14.1663 7.49844C14.1663 6.86335 12.3023 6.34851 10.0029 6.34851C7.70354 6.34851 5.83952 6.86335 5.83952 7.49844C5.83952 8.13353 7.70354 8.64837 10.0029 8.64837Z" fill="#6C0905"/>
<path d="M10.9961 7.6689C10.9961 8.03535 9.92053 8.33242 8.59375 8.33242C7.26697 8.33242 6.19141 8.03535 6.19141 7.6689C6.19141 7.30244 7.26697 7.00537 8.59375 7.00537C9.92053 7.00537 10.9961 7.30244 10.9961 7.6689Z" fill="#A91A13"/>
<path fill-rule="evenodd" clip-rule="evenodd" d="M10.7809 6.88648C10.79 6.74885 10.8904 6.64612 11.0051 6.65705C11.6597 6.71939 12.7402 6.87709 13.3995 7.20674C13.5057 7.25985 13.5559 7.40622 13.5117 7.53367C13.4674 7.66112 13.3454 7.72139 13.2392 7.66828C12.6485 7.37293 11.6301 7.21814 10.9721 7.15548C10.8574 7.14456 10.7718 7.02412 10.7809 6.88648Z" fill="#F93F35"/>
<path fill-rule="evenodd" clip-rule="evenodd" d="M6.34692 9.05295C6.4592 9.08309 6.52986 9.21673 6.50475 9.35147L6.50453 9.35269L6.5037 9.3572L6.5004 9.37552C6.49751 9.39167 6.49335 9.4154 6.48832 9.44511C6.47827 9.50463 6.46485 9.58773 6.45146 9.6818C6.42405 9.87427 6.39909 10.0968 6.39909 10.2579C6.39908 10.582 6.46469 10.8925 6.66936 11.1586C6.7474 11.2601 6.74213 11.4182 6.65759 11.5119C6.57304 11.6055 6.44124 11.5992 6.36319 11.4977C6.06787 11.1138 5.98242 10.6681 5.98242 10.2578C5.98242 10.0517 6.01281 9.79378 6.04074 9.59758C6.05502 9.49731 6.06928 9.40902 6.07997 9.34574C6.08533 9.31406 6.08981 9.28853 6.09298 9.27078L6.0967 9.25015L6.09772 9.24457L6.09809 9.24258C6.09809 9.24256 6.09813 9.24234 6.30144 9.29692L6.09809 9.24258C6.12321 9.10784 6.23464 9.02281 6.34692 9.05295Z" fill="#E8291F"/>
<path fill-rule="evenodd" clip-rule="evenodd" d="M6.97576 4.61317C7.0891 4.63699 7.16488 4.76656 7.14502 4.90256L6.83252 7.04318C6.81267 7.17918 6.7047 7.27012 6.59136 7.24629C6.47803 7.22247 6.40225 7.0929 6.4221 6.9569L6.73461 4.81628C6.75446 4.68028 6.86243 4.58934 6.97576 4.61317Z" fill="white"/>
</svg>
